<svg xmlns="http://www.w3.org/2000/svg" viewBox="0 0 394.13 75.43"><title>presentation-logo-cropped</title><path d="M22.82,36.42a10.92,10.92,0,0,1-3.3,7.9,11.37,11.37,0,0,1-3.63,2.36,11.59,11.59,0,0,1-4.47.86,15,15,0,0,1-4.7-.69,9.51,9.51,0,0,1-3.61-2.09,9.49,9.49,0,0,1-2.3-3.48A13.38,13.38,0,0,1,0,36.42a11,11,0,0,1,.86-4.35,10.87,10.87,0,0,1,2.39-3.52A11.2,11.2,0,0,1,6.86,26.2a12.17,12.17,0,0,1,4.58-.86,14.19,14.19,0,0,1,4.84.78,9.31,9.31,0,0,1,5.79,5.72,12.76,12.76,0,0,1,.75,4.58m-4.82,0a11.56,11.56,0,0,0-.4-3.2,6.71,6.71,0,0,0-1.23-2.48,5.48,5.48,0,0,0-2.06-1.6,7,7,0,0,0-2.89-.56,6.44,6.44,0,0,0-2.63.53,6,6,0,0,0-2.1,1.54,7.54,7.54,0,0,0-1.44,2.48,10.3,10.3,0,0,0-.51,3.3,9.4,9.4,0,0,0,1.58,5.78q1.59,2.09,5,2.08a5.9,5.9,0,0,0,2.89-.66,6.24,6.24,0,0,0,2.06-1.76,7.39,7.39,0,0,0,1.23-2.52,10.66,10.66,0,0,0,.4-2.92M40.52,47.71l-7-10.21,1.11-1.92a5.94,5.94,0,0,0,1.16-.12A5.33,5.33,0,0,0,37.16,35a4.09,4.09,0,0,0,1.4-1,2.72,2.72,0,0,0,.63-1.93,3.6,3.6,0,0,0-.32-1.68,2.71,2.71,0,0,0-.9-1.06,3.9,3.9,0,0,0-1.36-.57,7.86,7.86,0,0,0-1.68-.18H33.7c-.45,0-.9,0-1.36.07l-.09,18.5H27.8L28,25.68c1,0,1.94-.09,2.86-.15l2.38-.1h2a19.52,19.52,0,0,1,3.33.28,8.07,8.07,0,0,1,2.7,1,5.13,5.13,0,0,1,1.83,1.87,5.93,5.93,0,0,1,.68,3,5.84,5.84,0,0,1-.43,2.3,5.65,5.65,0,0,1-1.17,1.8A7,7,0,0,1,40.45,37a7.55,7.55,0,0,1-2,.75,4,4,0,0,1,.71.66l.61.78L44.59,46Zm22.17-.15-2.21-6.19h-8L50.1,47.53l-4-.88,8.6-21h4.42l8,20.91ZM57.9,34.26c-.24-.62-.44-1.25-.62-1.9s-.3-1.16-.4-1.64-.2-1-.31-1.59c-.1.54-.22,1.09-.37,1.65s-.29,1.12-.44,1.64-.37,1.22-.6,1.83l-1.4,3.87h5.58ZM89.69,46.59,84.6,47.74l-8-13.54c-.35-.57-.65-1.11-.91-1.61s-.46-.94-.63-1.34A10.76,10.76,0,0,1,74.57,30c0,.55.08,1.08.12,1.59s.08.93.11,1.45,0,1,0,1.39V47.18h-4L71,26.42l5.13-1.09,4.46,7.52,3.52,5.93c.35.58.65,1.11.9,1.61l.65,1.34c.21.46.39.88.55,1.27q-.09-.8-.15-1.56c0-.5-.07-1-.09-1.45V25.71h4Zm24.24-.5c-.47.16-1,.33-1.68.5s-1.31.33-2,.47-1.35.25-2,.34a12.8,12.8,0,0,1-1.64.13A16,16,0,0,1,102,46.9a10.22,10.22,0,0,1-3.73-2,9.21,9.21,0,0,1-2.5-3.42,12.57,12.57,0,0,1-.91-5,10.23,10.23,0,0,1,1-4.41,11.64,11.64,0,0,1,2.63-3.56,12.49,12.49,0,0,1,3.77-2.3,12.25,12.25,0,0,1,4.51-.86c.67,0,1.27,0,1.8.07a11.07,11.07,0,0,1,3,.69c.46.18.95.4,1.46.65l-1.75,2.72c-.44-.17-.85-.31-1.21-.43a9.13,9.13,0,0,0-1.06-.27c-.35-.06-.7-.11-1.06-.14h-1.21a6.26,6.26,0,0,0-2.69.61,7.22,7.22,0,0,0-2.24,1.67,8.67,8.67,0,0,0-1.53,2.43,8.09,8.09,0,0,0-.58,3,10.82,10.82,0,0,0,.43,3,7.37,7.37,0,0,0,1.28,2.51,6.16,6.16,0,0,0,2.15,1.71,6.78,6.78,0,0,0,3,.64,12,12,0,0,0,1.59-.1,9,9,0,0,0,1.37-.28l.06-7.16H114Z" style="fill:#007696"/><path d="M124.37,47.18H120l.15-21.51h4.42Z" style="fill:#007696"/><path d="M149.83,46.59l-5.09,1.15-8-13.54c-.35-.57-.65-1.11-.91-1.61s-.46-.94-.63-1.34a11.48,11.48,0,0,1-.49-1.27c0,.55.08,1.08.12,1.59s.08.93.11,1.45,0,1,0,1.39V47.18h-4l.16-20.76,5.15-1.13,4.46,7.52,3.54,5.93c.35.58.65,1.11.9,1.61l.65,1.34c.21.46.39.88.55,1.27-.06-.53-.13-1-.2-1.54a11.88,11.88,0,0,1-.09-1.45V25.69h4Zm20.06,1-2.21-6.19h-8l-2.43,6.16-4-.88,8.6-21h4.4l8,20.91Zm-4.79-13.3c-.24-.62-.44-1.25-.62-1.9l-.4-1.64c-.11-.46-.21-1-.31-1.59-.1.54-.22,1.09-.37,1.65s-.29,1.12-.44,1.64-.37,1.22-.6,1.83L161,38.11h5.58Zm34.5-4.46a5.89,5.89,0,0,0-1.08-.5c-.42-.14-.86-.27-1.3-.37s-.89-.18-1.33-.25a9.08,9.08,0,0,0-1.17-.09,5.78,5.78,0,0,0-2.83.6,2,2,0,0,0-1,1.91,2.19,2.19,0,0,0,.75,1.73A7.45,7.45,0,0,0,193.47,34c.76.34,1.57.68,2.44,1a11.29,11.29,0,0,1,2.43,1.22,6.48,6.48,0,0,1,1.86,1.9,5.37,5.37,0,0,1,.75,3,6.17,6.17,0,0,1-.57,2.71,5.36,5.36,0,0,1-1.63,2,7.32,7.32,0,0,1-2.58,1.27,11.74,11.74,0,0,1-3.39.44,15.09,15.09,0,0,1-7-1.59L187.4,43a13.77,13.77,0,0,0,2.31.81,10.31,10.31,0,0,0,2.59.31,5.27,5.27,0,0,0,2.94-.66,2.29,2.29,0,0,0,1-2.06,2,2,0,0,0-.75-1.65,7.83,7.83,0,0,0-1.87-1.11c-.74-.32-1.55-.66-2.43-1a11,11,0,0,1-2.41-1.24,6.58,6.58,0,0,1-1.87-1.92,5.54,5.54,0,0,1-.75-3,5.29,5.29,0,0,1,.6-2.49,6,6,0,0,1,1.66-2,8.48,8.48,0,0,1,2.51-1.27,10.6,10.6,0,0,1,3.16-.46,18.86,18.86,0,0,1,3.75.38,14.81,14.81,0,0,1,3.5,1.15Zm24.65,9.71a7.81,7.81,0,0,1-.72,3.47,7.18,7.18,0,0,1-2,2.51A8.39,8.39,0,0,1,218.58,47a12.49,12.49,0,0,1-3.7.52,11.75,11.75,0,0,1-3.62-.52,7.74,7.74,0,0,1-2.8-1.53,6.74,6.74,0,0,1-1.8-2.57,9.83,9.83,0,0,1-.63-3.64l.09-13.6h4.42l-.07,13.74a6,6,0,0,0,.37,2.18,4.12,4.12,0,0,0,1,1.5,4.19,4.19,0,0,0,1.57.87,6.29,6.29,0,0,0,1.92.28,5.42,5.42,0,0,0,2.15-.38A4,4,0,0,0,219,42.81a4.35,4.35,0,0,0,.92-1.6,6.15,6.15,0,0,0,.31-2l.06-13.55h4Zm25.07,7.08-5.07,1.15-8-13.54c-.34-.57-.65-1.11-.91-1.61s-.47-.94-.63-1.34a10.76,10.76,0,0,1-.49-1.27c0,.55.08,1.08.12,1.59s.08.93.11,1.45,0,1,0,1.39V47.18h-4l.13-20.76,5.13-1.09,4.45,7.52,3.52,5.93a17.22,17.22,0,0,1,.9,1.61l.67,1.3c.21.46.39.88.55,1.27-.11-1-.19-2-.24-3,0-.52,0-1,0-1.42V25.67h4Z" style="fill:#007696"/><path d="M263.85,29l-.12,18.17h-4.42L259.43,29h-5.84V25.67h16.1V29Z" style="fill:#007696"/><path d="M294.35,36.42a10.88,10.88,0,0,1-3.3,7.9,11.33,11.33,0,0,1-3.62,2.36,11.59,11.59,0,0,1-4.47.86,15,15,0,0,1-4.7-.69,9.11,9.11,0,0,1-5.91-5.57,13.33,13.33,0,0,1-.81-4.85,11,11,0,0,1,.86-4.35,10.91,10.91,0,0,1,2.38-3.51,11.2,11.2,0,0,1,3.61-2.35,12.17,12.17,0,0,1,4.58-.86,14.19,14.19,0,0,1,4.84.78,9.31,9.31,0,0,1,5.79,5.72,12.66,12.66,0,0,1,.75,4.56m-4.82,0a11.56,11.56,0,0,0-.4-3.2,6.71,6.71,0,0,0-1.23-2.48,5.48,5.48,0,0,0-2.06-1.6,7,7,0,0,0-2.89-.56,6.44,6.44,0,0,0-2.63.53,6,6,0,0,0-2.1,1.54,7.52,7.52,0,0,0-1.4,2.46,10.3,10.3,0,0,0-.51,3.3,9.4,9.4,0,0,0,1.58,5.78q1.59,2.09,5.05,2.08a5.9,5.9,0,0,0,2.89-.66,6.24,6.24,0,0,0,2.06-1.76,7.22,7.22,0,0,0,1.23-2.52,10.66,10.66,0,0,0,.4-2.92m22.53,11.3-7-10.21,1.11-1.92a5.86,5.86,0,0,0,1.16-.12,5,5,0,0,0,1.37-.43,4.09,4.09,0,0,0,1.4-1,2.72,2.72,0,0,0,.63-1.93,3.73,3.73,0,0,0-.32-1.64,2.68,2.68,0,0,0-.89-1.06,3.9,3.9,0,0,0-1.36-.57,7.86,7.86,0,0,0-1.68-.18h-1.22c-.45,0-.9,0-1.36.07l-.14,18.46h-4.42l.15-21.5c1,0,1.94-.09,2.86-.15l2.38-.1h2a19.52,19.52,0,0,1,3.33.28,8.07,8.07,0,0,1,2.7,1,5.21,5.21,0,0,1,1.83,1.87,6,6,0,0,1,.67,3,5.77,5.77,0,0,1-1.6,4.1A7,7,0,0,1,312,37a7.55,7.55,0,0,1-2,.75,4,4,0,0,1,.71.66l.61.78L316.11,46Zm17.13-10.24-.06,9.7H324.7l.06-9.5L317.6,27.12l3.93-1.89L326,32c.18.27.34.55.49.83s.26.53.37.77.24.54.34.8A14.5,14.5,0,0,1,328.45,32l4.68-6.78L336.66,27Z" style="fill:#007696"/><path d="M124.91,59.93l0,5.72h7v1.76h-7l0,7.58h-2.24l.14-16.85h9.36v1.79Z" style="fill:#007696"/><path d="M124.91,59.93l0,5.72h7v1.76h-7l0,7.58h-2.24l.14-16.85h9.36v1.79Z" style="fill:#007696"/><path d="M146.25,75.29l-5.72-8.48.39-.81a4.5,4.5,0,0,0,2.67-1.16,3.05,3.05,0,0,0,1-2.32,3.11,3.11,0,0,0-.3-1.47,2.34,2.34,0,0,0-.82-.89,3.33,3.33,0,0,0-1.2-.44,8.9,8.9,0,0,0-1.46-.12h-2.59l-.12,15.32h-2.24L136,58.07h6.07a9.52,9.52,0,0,1,1.32.17,7,7,0,0,1,1.29.42,3.76,3.76,0,0,1,1.12.76,3.43,3.43,0,0,1,.79,1.21,4.52,4.52,0,0,1,.29,1.74,4.11,4.11,0,0,1-.24,1.48,4.15,4.15,0,0,1-.6,1.14,3.66,3.66,0,0,1-.8.82,7,7,0,0,1-.85.57,5.06,5.06,0,0,1-.74.36l-.45.17,5.13,7.51Z" style="fill:#007696"/><path d="M146.25,75.29l-5.72-8.48.39-.81a4.5,4.5,0,0,0,2.67-1.16,3.05,3.05,0,0,0,1-2.32,3.11,3.11,0,0,0-.3-1.47,2.34,2.34,0,0,0-.82-.89,3.33,3.33,0,0,0-1.2-.44,8.9,8.9,0,0,0-1.46-.12h-2.59l-.12,15.32h-2.24L136,58.07h6.07a9.52,9.52,0,0,1,1.32.17,7,7,0,0,1,1.29.42,3.76,3.76,0,0,1,1.12.76,3.43,3.43,0,0,1,.79,1.21,4.52,4.52,0,0,1,.29,1.74,4.11,4.11,0,0,1-.24,1.48,4.15,4.15,0,0,1-.6,1.14,3.66,3.66,0,0,1-.8.82,7,7,0,0,1-.85.57,5.06,5.06,0,0,1-.74.36l-.45.17,5.13,7.51Zm17.39,0-2.39-5.92H154l-2.47,5.93-2.05-.63,7.36-16.57h2l6.85,16.52Zm-5.1-12.56c-.08-.18-.17-.42-.28-.72s-.2-.58-.28-.86-.2-.66-.31-1q-.12.46-.27.9c-.1.29-.17.54-.28.82l-.3.82-2.08,4.89h5.78Z" style="fill:#007696"/><path d="M163.64,75.34l-2.39-5.92H154l-2.47,5.93-2.05-.63,7.36-16.57h2l6.85,16.52Zm-5.1-12.56c-.08-.18-.17-.42-.28-.72s-.2-.58-.28-.86-.2-.66-.31-1q-.12.46-.27.9c-.1.29-.17.54-.28.82l-.3.82-2.08,4.89h5.78Zm24.34,11.93-2.39.58L172.94,63.7c-.22-.34-.44-.69-.64-1.07l-.54-1-.53-1V75.05h-2l.16-16.63,2.36-.56,7.55,11.56c.23.34.44.69.64,1s.38.7.54,1,.35.73.53,1.07V58.14h2Z" style="fill:#007696"/><path d="M182.88,74.71l-2.39.58L172.94,63.7c-.22-.34-.44-.69-.64-1.07l-.54-1-.53-1V75.05h-2l.16-16.63,2.36-.56,7.55,11.56c.23.34.44.69.64,1s.38.7.54,1,.35.73.53,1.07V58.14h2ZM200.25,60.3c-.34-.14-.64-.26-.92-.35a8.08,8.08,0,0,0-.85-.2,9.24,9.24,0,0,0-.92-.11h-1.09a6.55,6.55,0,0,0-2.75.57,6,6,0,0,0-2,1.54A7,7,0,0,0,190.44,64a8.43,8.43,0,0,0-.45,2.72,10,10,0,0,0,.38,2.77,6,6,0,0,0,1.12,2.17,5.05,5.05,0,0,0,1.89,1.41,6.63,6.63,0,0,0,2.71.51,6.85,6.85,0,0,0,2.16-.37,16.85,16.85,0,0,0,1.82-.73l.8,1.51a13.23,13.23,0,0,1-2.44.9,9.86,9.86,0,0,1-2.65.37,8.78,8.78,0,0,1-3.32-.59,7.41,7.41,0,0,1-2.6-1.68,7.63,7.63,0,0,1-1.69-2.67,10,10,0,0,1-.6-3.52,9.44,9.44,0,0,1,.66-3.52,8.84,8.84,0,0,1,1.87-2.87,8.53,8.53,0,0,1,2.82-1.89,9.48,9.48,0,0,1,3.6-.68h1.3a6,6,0,0,1,1.06.12,8.1,8.1,0,0,1,1,.24c.36.11.76.26,1.21.44Z" style="fill:#007696"/><path d="M200.25,60.3c-.34-.14-.64-.26-.92-.35a8.08,8.08,0,0,0-.85-.2,9.24,9.24,0,0,0-.92-.11h-1.09a6.55,6.55,0,0,0-2.75.57,6,6,0,0,0-2,1.54A7,7,0,0,0,190.44,64a8.43,8.43,0,0,0-.45,2.72,10,10,0,0,0,.38,2.77,6,6,0,0,0,1.12,2.17,5.05,5.05,0,0,0,1.89,1.41,6.63,6.63,0,0,0,2.71.51,6.85,6.85,0,0,0,2.16-.37,16.85,16.85,0,0,0,1.82-.73l.8,1.51a13.23,13.23,0,0,1-2.44.9,9.86,9.86,0,0,1-2.65.37,8.78,8.78,0,0,1-3.32-.59,7.41,7.41,0,0,1-2.6-1.68,7.63,7.63,0,0,1-1.69-2.67,10,10,0,0,1-.6-3.52,9.44,9.44,0,0,1,.66-3.52,8.84,8.84,0,0,1,1.87-2.87,8.53,8.53,0,0,1,2.82-1.89,9.48,9.48,0,0,1,3.6-.68h1.3a6,6,0,0,1,1.06.12,8.1,8.1,0,0,1,1,.24c.36.11.76.26,1.21.44Z" style="fill:#007696"/><path d="M204.53,75l.14-16.85H214v1.79h-7.17l-.05,5.65h7v1.76h-7l0,5.84h7.36V75Z" style="fill:#007696"/><path d="M204.53,75l.14-16.85H214v1.79h-7.17l-.05,5.65h7v1.76h-7l0,5.84h7.36V75Z" style="fill:#007696"/><path d="M351.57,51c7.1-12.54,40.52-42.26,24-50.28-15.12-7.33-22.08,41.14-24.21,49.3-.48,1.87-.46,2.14.2,1" style="fill:#007696"/><path d="M351.36,50.05c-.48,1.88-.46,2.14.2,1,7.1-12.54,40.52-42.26,24-50.28A7.1,7.1,0,0,0,372.49,0c-13,0-19.18,42.48-21.16,50.06m-5.16,6.52A9.42,9.42,0,1,0,355.59,66a9.42,9.42,0,0,0-9.42-9.42h0m5.31,13.91c-1.4,1.73-3.33,2.48-4.31,1.69s-.64-2.83.75-4.56,3.32-2.48,4.3-1.69.64,2.84-.75,4.56" style="fill:#007696"/><path d="M359.77,59.63s5-19,19.88-21.29c0,0,12.69-2.84,14.37,4,0,0,2.1,6.85-12.35,8.35,0,0-10.28.52-14.28,3.6,0,0-6,4.5-7,6.51,0,0-.83.17-.58-1.17" style="fill:#fec802"/><path d="M366.16,61.17s8.63-6.42,15.38-2.48c0,0,6.08,3,4.37,6.43,0,0-1.54,3.6-7.86-.52,0,0-4.3-3.16-7-3.17,0,0-4-.08-5.08.44,0,0-.4-.2.17-.69" style="fill:#7a266e"/></svg>