<svg class="logo-orangina-suntory-france" xmlns="http://www.w3.org/2000/svg" width="480" height="80" viewBox="0 0 335 80"><defs><style>.cls-1{fill:#007696}.cls-2{fill:#fec802}.cls-3{fill:#7a266e}</style></defs><title>logo-orangina-suntory-france</title><path class="cls-1" d="M68.57 40a10.92 10.92 0 0 1-3.3 7.9 11.39 11.39 0 0 1-3.63 2.36 11.6 11.6 0 0 1-4.47.86 15.06 15.06 0 0 1-4.7-.69 9.5 9.5 0 0 1-3.61-2.09 9.39 9.39 0 0 1-2.3-3.48 13.26 13.26 0 0 1-.81-4.86 11 11 0 0 1 .86-4.35A10.76 10.76 0 0 1 49 32.13a11.13 11.13 0 0 1 3.61-2.35 12 12 0 0 1 4.58-.86 14 14 0 0 1 4.84.78 9.35 9.35 0 0 1 5.79 5.72 12.91 12.91 0 0 1 .75 4.58m-4.82 0a11.94 11.94 0 0 0-.4-3.2 6.87 6.87 0 0 0-1.23-2.48 5.49 5.49 0 0 0-2.06-1.6 6.93 6.93 0 0 0-2.89-.56 6.51 6.51 0 0 0-2.63.53 5.92 5.92 0 0 0-2.1 1.54A7.33 7.33 0 0 0 51 36.71a9.94 9.94 0 0 0-.51 3.3 9.35 9.35 0 0 0 1.58 5.78q1.58 2.08 5.05 2.08a6 6 0 0 0 2.89-.66 6.25 6.25 0 0 0 2.06-1.76 7.51 7.51 0 0 0 1.23-2.52 10.76 10.76 0 0 0 .4-2.92m22.57 11.28l-7-10.21 1.11-1.92q.55 0 1.16-.12a5.47 5.47 0 0 0 1.37-.43 4.18 4.18 0 0 0 1.4-1 2.76 2.76 0 0 0 .63-1.93 3.73 3.73 0 0 0-.32-1.68 2.75 2.75 0 0 0-.9-1.06 3.82 3.82 0 0 0-1.36-.57 7.65 7.65 0 0 0-1.68-.18h-1.23q-.68 0-1.36.07L78 50.76h-4.45l.15-21.5q1.47-.06 2.86-.15l2.38-.1h2a18.74 18.74 0 0 1 3.33.28 7.94 7.94 0 0 1 2.7 1 5.12 5.12 0 0 1 1.83 1.87 6 6 0 0 1 .68 3 5.9 5.9 0 0 1-.43 2.3 5.75 5.75 0 0 1-1.17 1.8 7 7 0 0 1-1.68 1.28 7.67 7.67 0 0 1-2 .75 4.14 4.14 0 0 1 .71.66l.61.78 4.82 6.84zm22.17-.15l-2.21-6.19h-8l-2.38 6.16-4-.88 8.6-21h4.42l8 20.91zm-4.79-13.3a19.37 19.37 0 0 1-.62-1.9q-.25-.93-.4-1.64t-.31-1.59q-.15.8-.37 1.65t-.44 1.64q-.26.91-.6 1.83l-1.4 3.87h5.58zm31.79 12.33l-5.09 1.15-8-13.54q-.53-.86-.91-1.61t-.63-1.34a11 11 0 0 1-.49-1.27c0 .55.08 1.08.12 1.59s.08.93.11 1.45 0 1 0 1.39v12.77h-4L116.7 30l5.13-1.09 4.46 7.52 3.52 5.93q.52.86.9 1.61l.65 1.34q.31.68.55 1.27-.09-.8-.15-1.56t-.09-1.45V29.29h4zm24.24-.5c-.47.16-1 .33-1.68.5s-1.31.33-2 .47-1.35.25-2 .34a12.5 12.5 0 0 1-1.64.13 16.16 16.16 0 0 1-4.62-.63 10.26 10.26 0 0 1-3.73-2 9.16 9.16 0 0 1-2.5-3.42 12.38 12.38 0 0 1-.91-5 10.05 10.05 0 0 1 1-4.41 11.51 11.51 0 0 1 2.63-3.56 12.32 12.32 0 0 1 3.77-2.3 12.11 12.11 0 0 1 4.51-.86q1 0 1.8.07a11 11 0 0 1 1.55.25 11.43 11.43 0 0 1 1.43.44q.69.27 1.46.65L157 33.06q-.67-.26-1.21-.43a9.13 9.13 0 0 0-1.06-.27 9.76 9.76 0 0 0-1.06-.14h-1.21a6.19 6.19 0 0 0-2.69.61 7.16 7.16 0 0 0-2.24 1.67 8.37 8.37 0 0 0-1.53 2.43 7.92 7.92 0 0 0-.58 3 10.54 10.54 0 0 0 .43 3 7.39 7.39 0 0 0 1.28 2.51 6.15 6.15 0 0 0 2.15 1.71 6.84 6.84 0 0 0 3 .64 11.81 11.81 0 0 0 1.59-.1 9.59 9.59 0 0 0 1.37-.28l.06-7.16h4.42z" transform="translate(-45.75 -3.57)"></path><path class="cls-1" d="M124.37 47.19h-4.42l.15-21.51h4.42l-.15 21.51z"></path><path class="cls-1" d="M195.58 50.17l-5.09 1.15-8-13.54q-.53-.86-.91-1.61t-.63-1.34a11.19 11.19 0 0 1-.49-1.27c0 .55.08 1.08.12 1.59s.08.93.11 1.45 0 1 0 1.39v12.77h-4l.16-20.76 5.15-1.13 4.46 7.52 3.54 5.93q.52.86.9 1.61l.65 1.34q.31.68.55 1.27-.1-.8-.2-1.54t-.09-1.45V29.27h4zm20.06.97l-2.21-6.19h-8L203 51.11l-4-.88 8.6-21h4.4l8 20.91zm-4.79-13.3a19.37 19.37 0 0 1-.62-1.9l-.4-1.64q-.17-.7-.31-1.59-.15.8-.37 1.65t-.44 1.64q-.26.91-.6 1.83l-1.41 3.86h5.58zm34.5-4.46a5.59 5.59 0 0 0-1.08-.5 13 13 0 0 0-1.3-.37q-.67-.15-1.33-.25a8.48 8.48 0 0 0-1.17-.09 5.73 5.73 0 0 0-2.83.6 2 2 0 0 0-1.05 1.91 2.18 2.18 0 0 0 .75 1.73 7.4 7.4 0 0 0 1.88 1.16q1.13.51 2.44 1a11 11 0 0 1 2.43 1.22 6.63 6.63 0 0 1 1.86 1.9 5.37 5.37 0 0 1 .75 3 6.29 6.29 0 0 1-.57 2.71 5.52 5.52 0 0 1-1.63 2 7.61 7.61 0 0 1-2.58 1.27 12.12 12.12 0 0 1-3.39.44 15.15 15.15 0 0 1-7-1.59l1.62-2.92a13.79 13.79 0 0 0 2.31.81 10.38 10.38 0 0 0 2.59.31 5.38 5.38 0 0 0 2.94-.66A2.31 2.31 0 0 0 242 45a2 2 0 0 0-.75-1.65 7.83 7.83 0 0 0-1.87-1.11q-1.12-.49-2.43-1a11 11 0 0 1-2.41-1.24 6.53 6.53 0 0 1-1.87-1.92 5.49 5.49 0 0 1-.75-3 5.26 5.26 0 0 1 .6-2.49 5.91 5.91 0 0 1 1.66-1.95 8.11 8.11 0 0 1 2.51-1.27 10.45 10.45 0 0 1 3.16-.46 19 19 0 0 1 3.75.38 14.82 14.82 0 0 1 3.5 1.15zM270 43.09a7.87 7.87 0 0 1-.72 3.47 7.32 7.32 0 0 1-2 2.51 8.45 8.45 0 0 1-2.95 1.53 12.69 12.69 0 0 1-3.7.52 11.92 11.92 0 0 1-3.62-.52 7.74 7.74 0 0 1-2.8-1.53 6.67 6.67 0 0 1-1.8-2.57 9.64 9.64 0 0 1-.63-3.64l.09-13.6h4.42L256.22 43a5.81 5.81 0 0 0 .37 2.18 4 4 0 0 0 1 1.5 4.15 4.15 0 0 0 1.57.87 6.48 6.48 0 0 0 1.92.28 5.58 5.58 0 0 0 2.15-.38 4.22 4.22 0 0 0 1.54-1.06 4.42 4.42 0 0 0 .92-1.6 6.38 6.38 0 0 0 .31-2l.06-13.55h4zm25.07 7.08L290 51.32l-8-13.54q-.52-.86-.91-1.61t-.63-1.34a11 11 0 0 1-.49-1.27c0 .55.08 1.08.12 1.59s.08.93.11 1.45 0 1 0 1.39v12.77h-4l.13-20.76 5.13-1.09 4.45 7.52 3.52 5.93q.53.86.9 1.61l.67 1.3q.31.68.55 1.27a45.497 45.497 0 0 1-.24-3.01c-.02-.52 0-1 0-1.42V29.25h4z" transform="translate(-45.75 -3.57)"></path><path class="cls-1" d="M263.85 29.02l-.12 18.17h-4.42l.12-18.17h-5.84v-3.34h16.1v3.34h-5.84z"></path><path class="cls-1" d="M340.1 40a10.91 10.91 0 0 1-3.3 7.9 11.38 11.38 0 0 1-3.62 2.36 11.62 11.62 0 0 1-4.47.86 15.06 15.06 0 0 1-4.7-.69 9.5 9.5 0 0 1-3.61-2.09 9.39 9.39 0 0 1-2.3-3.48 13.26 13.26 0 0 1-.81-4.85 11 11 0 0 1 .86-4.35 10.74 10.74 0 0 1 2.38-3.51 11.13 11.13 0 0 1 3.61-2.35 12 12 0 0 1 4.58-.86 14 14 0 0 1 4.84.78 9.35 9.35 0 0 1 5.79 5.72 12.91 12.91 0 0 1 .75 4.56m-4.82 0a11.94 11.94 0 0 0-.4-3.2 6.86 6.86 0 0 0-1.23-2.48 5.5 5.5 0 0 0-2.06-1.6 6.93 6.93 0 0 0-2.89-.56 6.51 6.51 0 0 0-2.63.53 5.91 5.91 0 0 0-2.1 1.54 7.33 7.33 0 0 0-1.4 2.46 9.94 9.94 0 0 0-.51 3.3 9.35 9.35 0 0 0 1.58 5.78q1.58 2.08 5.05 2.08a6 6 0 0 0 2.89-.66 6.27 6.27 0 0 0 2.06-1.76 7.49 7.49 0 0 0 1.23-2.52 10.76 10.76 0 0 0 .4-2.92m22.53 11.3l-7-10.21 1.11-1.92q.56 0 1.16-.12a5.46 5.46 0 0 0 1.37-.43 4.17 4.17 0 0 0 1.4-1 2.76 2.76 0 0 0 .63-1.93 3.71 3.71 0 0 0-.32-1.64 2.74 2.74 0 0 0-.89-1.06 3.83 3.83 0 0 0-1.36-.57 7.66 7.66 0 0 0-1.68-.18H351q-.68 0-1.36.07l-.14 18.46h-4.42l.15-21.5q1.48-.06 2.86-.15l2.38-.1h2a18.74 18.74 0 0 1 3.33.28 7.94 7.94 0 0 1 2.7 1 5.15 5.15 0 0 1 1.83 1.87 6 6 0 0 1 .67 3 5.89 5.89 0 0 1-.43 2.3 5.78 5.78 0 0 1-1.17 1.8 7 7 0 0 1-1.68 1.28 7.66 7.66 0 0 1-2 .75 4.11 4.11 0 0 1 .71.66l.61.78 4.82 6.84zm17.13-10.24l-.06 9.7h-4.42l.06-9.5-7.16-10.55 3.93-1.89 4.43 6.78a9.12 9.12 0 0 1 .49.83c.14.28.26.53.37.77s.24.54.34.8a13.91 13.91 0 0 1 1.29-2.39l4.68-6.78 3.53 1.77z" transform="translate(-45.75 -3.57)"></path><path class="cls-1" d="M124.91 59.94l-.05 5.72h6.95v1.76h-6.97l-.05 7.58h-2.24l.14-16.85h9.36v1.79h-7.14z"></path><path class="cls-1" d="M124.91 59.94l-.05 5.72h6.95v1.76h-6.97l-.05 7.58h-2.24l.14-16.85h9.36v1.79h-7.14z"></path><path class="cls-1" d="M192 78.87l-5.72-8.48.39-.81a4.58 4.58 0 0 0 2.67-1.16 3.07 3.07 0 0 0 1-2.32 3.15 3.15 0 0 0-.3-1.47 2.33 2.33 0 0 0-.82-.89 3.26 3.26 0 0 0-1.2-.44 8.76 8.76 0 0 0-1.46-.12h-2.59l-.12 15.32h-2.24l.15-16.85h6.07a8.87 8.87 0 0 1 1.32.17 6.48 6.48 0 0 1 1.29.42 3.77 3.77 0 0 1 1.12.76 3.52 3.52 0 0 1 .79 1.21 4.66 4.66 0 0 1 .29 1.74 4.23 4.23 0 0 1-.24 1.48 4.55 4.55 0 0 1-.6 1.14 4.19 4.19 0 0 1-.8.82 7.07 7.07 0 0 1-.85.57 6.08 6.08 0 0 1-.74.36l-.45.17 5.13 7.51z" transform="translate(-45.75 -3.57)"></path><path class="cls-1" d="M192 78.87l-5.72-8.48.39-.81a4.58 4.58 0 0 0 2.67-1.16 3.07 3.07 0 0 0 1-2.32 3.15 3.15 0 0 0-.3-1.47 2.33 2.33 0 0 0-.82-.89 3.26 3.26 0 0 0-1.2-.44 8.76 8.76 0 0 0-1.46-.12h-2.59l-.12 15.32h-2.24l.15-16.85h6.07a8.87 8.87 0 0 1 1.32.17 6.48 6.48 0 0 1 1.29.42 3.77 3.77 0 0 1 1.12.76 3.52 3.52 0 0 1 .79 1.21 4.66 4.66 0 0 1 .29 1.74 4.23 4.23 0 0 1-.24 1.48 4.55 4.55 0 0 1-.6 1.14 4.19 4.19 0 0 1-.8.82 7.07 7.07 0 0 1-.85.57 6.08 6.08 0 0 1-.74.36l-.45.17 5.13 7.51zm17.39.05L207 73h-7.23l-2.47 5.93-2.05-.63 7.36-16.57h2.05l6.85 16.52zm-5.1-12.56c-.08-.18-.17-.42-.28-.72s-.2-.58-.28-.86-.2-.66-.31-1c-.08.31-.17.61-.27.9s-.17.54-.28.82l-.3.82-2.08 4.89h5.78z" transform="translate(-45.75 -3.57)"></path><path class="cls-1" d="M209.39 78.92L207 73h-7.23l-2.47 5.93-2.05-.63 7.36-16.57h2.05l6.85 16.52zm-5.1-12.56c-.08-.18-.17-.42-.28-.72s-.2-.58-.28-.86-.2-.66-.31-1c-.08.31-.17.61-.27.9s-.17.54-.28.82l-.3.82-2.08 4.89h5.78zm24.34 11.93l-2.39.58-7.55-11.59q-.34-.51-.64-1.07c-.2-.37-.38-.71-.54-1l-.53-1v14.42h-2.05l.16-16.63 2.36-.56L225 73q.34.51.64 1.05c.2.36.38.7.54 1s.35.73.53 1.07v-14.4h2.05z" transform="translate(-45.75 -3.57)"></path><path class="cls-1" d="M228.63 78.29l-2.39.58-7.55-11.59q-.34-.51-.64-1.07c-.2-.37-.38-.71-.54-1l-.53-1v14.42h-2.05l.16-16.63 2.36-.56L225 73q.34.51.64 1.05c.2.36.38.7.54 1s.35.73.53 1.07v-14.4h2.05zM246 63.88c-.34-.14-.64-.26-.92-.35a6.47 6.47 0 0 0-.85-.2 8.23 8.23 0 0 0-.92-.11h-1.09a6.41 6.41 0 0 0-2.75.57 6 6 0 0 0-2 1.54 6.94 6.94 0 0 0-1.28 2.26 8.23 8.23 0 0 0-.45 2.72 9.69 9.69 0 0 0 .38 2.77 6 6 0 0 0 1.12 2.17 5.11 5.11 0 0 0 1.89 1.41 6.64 6.64 0 0 0 2.71.51 7 7 0 0 0 2.16-.37 16.89 16.89 0 0 0 1.82-.73l.8 1.51a13.75 13.75 0 0 1-2.44.9 10 10 0 0 1-2.65.37 9 9 0 0 1-3.32-.59 7.46 7.46 0 0 1-2.6-1.68 7.55 7.55 0 0 1-1.69-2.67 9.77 9.77 0 0 1-.6-3.52 9.24 9.24 0 0 1 .66-3.52 8.68 8.68 0 0 1 1.87-2.87 8.45 8.45 0 0 1 2.82-1.89 9.26 9.26 0 0 1 3.6-.68h1.3c.37 0 .72.06 1.06.12a7.78 7.78 0 0 1 1 .24q.53.16 1.21.44z" transform="translate(-45.75 -3.57)"></path><path class="cls-1" d="M246 63.88c-.34-.14-.64-.26-.92-.35a6.47 6.47 0 0 0-.85-.2 8.23 8.23 0 0 0-.92-.11h-1.09a6.41 6.41 0 0 0-2.75.57 6 6 0 0 0-2 1.54 6.94 6.94 0 0 0-1.28 2.26 8.23 8.23 0 0 0-.45 2.72 9.69 9.69 0 0 0 .38 2.77 6 6 0 0 0 1.12 2.17 5.11 5.11 0 0 0 1.89 1.41 6.64 6.64 0 0 0 2.71.51 7 7 0 0 0 2.16-.37 16.89 16.89 0 0 0 1.82-.73l.8 1.51a13.75 13.75 0 0 1-2.44.9 10 10 0 0 1-2.65.37 9 9 0 0 1-3.32-.59 7.46 7.46 0 0 1-2.6-1.68 7.55 7.55 0 0 1-1.69-2.67 9.77 9.77 0 0 1-.6-3.52 9.24 9.24 0 0 1 .66-3.52 8.68 8.68 0 0 1 1.87-2.87 8.45 8.45 0 0 1 2.82-1.89 9.26 9.26 0 0 1 3.6-.68h1.3c.37 0 .72.06 1.06.12a7.78 7.78 0 0 1 1 .24q.53.16 1.21.44z" transform="translate(-45.75 -3.57)"></path><path class="cls-1" d="M204.53 75l.14-16.85h9.37v1.79h-7.17l-.05 5.65h6.98v1.76h-7l-.03 5.84h7.36V75h-9.6z"></path><path class="cls-1" d="M204.53 75l.14-16.85h9.37v1.79h-7.17l-.05 5.65h6.98v1.76h-7l-.03 5.84h7.36V75h-9.6z"></path><path class="cls-1" d="M397.32 54.61c7.1-12.54 40.52-42.26 24-50.28-15.12-7.33-22.08 41.14-24.21 49.3-.48 1.87-.46 2.14.2 1" transform="translate(-45.75 -3.57)"></path><path class="cls-1" d="M397.11 53.63c-.48 1.88-.46 2.14.2 1 7.1-12.54 40.52-42.26 24-50.28a7 7 0 0 0-3.07-.76c-13 0-19.18 42.48-21.16 50.06m-5.16 6.52a9.42 9.42 0 1 0 9.42 9.42 9.42 9.42 0 0 0-9.42-9.42m5.31 13.91c-1.4 1.73-3.33 2.48-4.31 1.69s-.64-2.83.75-4.56 3.32-2.48 4.3-1.69.64 2.84-.75 4.56" transform="translate(-45.75 -3.57)"></path><path class="cls-2" d="M405.52 63.21s5-19 19.88-21.29c0 0 12.69-2.84 14.37 4 0 0 2.1 6.85-12.35 8.35 0 0-10.28.52-14.28 3.6 0 0-6 4.5-7 6.51 0 0-.83.17-.58-1.17" transform="translate(-45.75 -3.57)"></path><path class="cls-3" d="M411.91 64.75s8.63-6.42 15.38-2.48c0 0 6.08 3 4.37 6.43 0 0-1.54 3.6-7.86-.52 0 0-4.3-3.16-7-3.17 0 0-4-.08-5.08.44 0 0-.4-.2.17-.69" transform="translate(-45.75 -3.57)"></path></svg>